<mxfile host="Electron" modified="2023-12-29T08:27:42.150Z" agent="Mozilla/5.0 (Windows NT 10.0; Win64; x64) AppleWebKit/537.36 (KHTML, like Gecko) draw.io/22.1.15 Chrome/120.0.6099.109 Electron/28.1.0 Safari/537.36" etag="oLJTjdumMZCCCsqKgvOe" version="22.1.15" type="device">
  <diagram name="Page-1" id="LtMPOSMvzV6gFBnCF_me">
    <mxGraphModel dx="484" dy="663" grid="1" gridSize="10" guides="1" tooltips="1" connect="1" arrows="1" fold="1" page="1" pageScale="1" pageWidth="850" pageHeight="1100" math="0" shadow="0">
      <root>
        <mxCell id="0" />
        <mxCell id="1" parent="0" />
        <mxCell id="08S5L4-9xJycrJJr0ee1-9" style="edgeStyle=orthogonalEdgeStyle;rounded=0;orthogonalLoop=1;jettySize=auto;html=1;entryX=0.5;entryY=0;entryDx=0;entryDy=0;" parent="1" source="8Ifmvfzh9Me1tGv9ybPd-6" target="08S5L4-9xJycrJJr0ee1-6" edge="1">
          <mxGeometry relative="1" as="geometry" />
        </mxCell>
        <mxCell id="8Ifmvfzh9Me1tGv9ybPd-6" value="&lt;font face=&quot;consolas&quot;&gt;定义num&lt;/font&gt;" style="rounded=0;whiteSpace=wrap;html=1;fillColor=#b1ddf0;strokeColor=#10739e;" parent="1" vertex="1">
          <mxGeometry x="220" y="200" width="80" height="20" as="geometry" />
        </mxCell>
        <mxCell id="08S5L4-9xJycrJJr0ee1-5" value="" style="edgeStyle=orthogonalEdgeStyle;rounded=0;orthogonalLoop=1;jettySize=auto;html=1;" parent="1" source="8Ifmvfzh9Me1tGv9ybPd-9" target="8Ifmvfzh9Me1tGv9ybPd-17" edge="1">
          <mxGeometry relative="1" as="geometry" />
        </mxCell>
        <mxCell id="8Ifmvfzh9Me1tGv9ybPd-9" value="&lt;font face=&quot;consolas&quot;&gt;定义mod&lt;/font&gt;" style="rounded=0;whiteSpace=wrap;html=1;fillColor=#b1ddf0;strokeColor=#10739e;" parent="1" vertex="1">
          <mxGeometry x="220" y="320" width="80" height="20" as="geometry" />
        </mxCell>
        <mxCell id="8Ifmvfzh9Me1tGv9ybPd-23" style="edgeStyle=orthogonalEdgeStyle;rounded=0;orthogonalLoop=1;jettySize=auto;html=1;exitX=0;exitY=0.5;exitDx=0;exitDy=0;" parent="1" source="8Ifmvfzh9Me1tGv9ybPd-17" target="8Ifmvfzh9Me1tGv9ybPd-19" edge="1">
          <mxGeometry relative="1" as="geometry">
            <Array as="points">
              <mxPoint x="210" y="395" />
            </Array>
          </mxGeometry>
        </mxCell>
        <mxCell id="8Ifmvfzh9Me1tGv9ybPd-46" value="满足" style="edgeLabel;html=1;align=center;verticalAlign=middle;resizable=0;points=[];" parent="8Ifmvfzh9Me1tGv9ybPd-23" vertex="1" connectable="0">
          <mxGeometry x="0.1844" y="-3" relative="1" as="geometry">
            <mxPoint x="3" y="2" as="offset" />
          </mxGeometry>
        </mxCell>
        <mxCell id="8Ifmvfzh9Me1tGv9ybPd-24" style="edgeStyle=orthogonalEdgeStyle;rounded=0;orthogonalLoop=1;jettySize=auto;html=1;exitX=1;exitY=0.5;exitDx=0;exitDy=0;" parent="1" source="8Ifmvfzh9Me1tGv9ybPd-17" target="8Ifmvfzh9Me1tGv9ybPd-21" edge="1">
          <mxGeometry relative="1" as="geometry">
            <Array as="points">
              <mxPoint x="310" y="395" />
            </Array>
          </mxGeometry>
        </mxCell>
        <mxCell id="8Ifmvfzh9Me1tGv9ybPd-47" value="不满足" style="edgeLabel;html=1;align=center;verticalAlign=middle;resizable=0;points=[];" parent="8Ifmvfzh9Me1tGv9ybPd-24" vertex="1" connectable="0">
          <mxGeometry x="0.1481" relative="1" as="geometry">
            <mxPoint y="4" as="offset" />
          </mxGeometry>
        </mxCell>
        <mxCell id="8Ifmvfzh9Me1tGv9ybPd-17" value="&lt;font face=&quot;consolas&quot;&gt;mod==1&lt;/font&gt;" style="rhombus;whiteSpace=wrap;html=1;fillColor=#fad7ac;strokeColor=#b46504;" parent="1" vertex="1">
          <mxGeometry x="230" y="380" width="60" height="30" as="geometry" />
        </mxCell>
        <mxCell id="08S5L4-9xJycrJJr0ee1-15" value="" style="edgeStyle=orthogonalEdgeStyle;rounded=0;orthogonalLoop=1;jettySize=auto;html=1;" parent="1" source="8Ifmvfzh9Me1tGv9ybPd-19" target="08S5L4-9xJycrJJr0ee1-14" edge="1">
          <mxGeometry relative="1" as="geometry" />
        </mxCell>
        <mxCell id="8Ifmvfzh9Me1tGv9ybPd-19" value="&lt;font face=&quot;consolas&quot;&gt;cout&amp;lt;&amp;lt;&quot;奇数&quot;&lt;/font&gt;" style="rounded=0;whiteSpace=wrap;html=1;fillColor=#fad7ac;strokeColor=#b46504;" parent="1" vertex="1">
          <mxGeometry x="170" y="440" width="80" height="20" as="geometry" />
        </mxCell>
        <mxCell id="08S5L4-9xJycrJJr0ee1-16" value="" style="edgeStyle=orthogonalEdgeStyle;rounded=0;orthogonalLoop=1;jettySize=auto;html=1;" parent="1" source="8Ifmvfzh9Me1tGv9ybPd-21" target="08S5L4-9xJycrJJr0ee1-14" edge="1">
          <mxGeometry relative="1" as="geometry" />
        </mxCell>
        <mxCell id="8Ifmvfzh9Me1tGv9ybPd-21" value="&lt;font face=&quot;consolas&quot;&gt;cout&amp;lt;&amp;lt;&quot;偶数&quot;&lt;/font&gt;" style="rounded=0;whiteSpace=wrap;html=1;fillColor=#fad7ac;strokeColor=#b46504;" parent="1" vertex="1">
          <mxGeometry x="270" y="440" width="80" height="20" as="geometry" />
        </mxCell>
        <mxCell id="08S5L4-9xJycrJJr0ee1-8" style="edgeStyle=orthogonalEdgeStyle;rounded=0;orthogonalLoop=1;jettySize=auto;html=1;entryX=0.5;entryY=0;entryDx=0;entryDy=0;" parent="1" source="08S5L4-9xJycrJJr0ee1-6" target="8Ifmvfzh9Me1tGv9ybPd-9" edge="1">
          <mxGeometry relative="1" as="geometry" />
        </mxCell>
        <mxCell id="08S5L4-9xJycrJJr0ee1-6" value="&lt;font face=&quot;consolas&quot;&gt;输入num&lt;/font&gt;" style="shape=parallelogram;perimeter=parallelogramPerimeter;whiteSpace=wrap;html=1;fixedSize=1;fillColor=#b1ddf0;strokeColor=#10739e;" parent="1" vertex="1">
          <mxGeometry x="220" y="260" width="80" height="20" as="geometry" />
        </mxCell>
        <mxCell id="08S5L4-9xJycrJJr0ee1-13" style="edgeStyle=orthogonalEdgeStyle;rounded=0;orthogonalLoop=1;jettySize=auto;html=1;" parent="1" source="08S5L4-9xJycrJJr0ee1-11" target="8Ifmvfzh9Me1tGv9ybPd-6" edge="1">
          <mxGeometry relative="1" as="geometry" />
        </mxCell>
        <mxCell id="08S5L4-9xJycrJJr0ee1-11" value="程序开始" style="strokeWidth=2;html=1;shape=mxgraph.flowchart.terminator;whiteSpace=wrap;fillColor=#eeeeee;strokeColor=#36393d;" parent="1" vertex="1">
          <mxGeometry x="220" y="130" width="80" height="30" as="geometry" />
        </mxCell>
        <mxCell id="08S5L4-9xJycrJJr0ee1-14" value="程序结束" style="strokeWidth=2;html=1;shape=mxgraph.flowchart.terminator;whiteSpace=wrap;fillColor=#eeeeee;strokeColor=#36393d;" parent="1" vertex="1">
          <mxGeometry x="220" y="510" width="80" height="30" as="geometry" />
        </mxCell>
      </root>
    </mxGraphModel>
  </diagram>
</mxfile>
